<svg width="131" height="148" viewBox="0 0 131 148" fill="none" xmlns="http://www.w3.org/2000/svg">
<g clip-path="url(#clip0_2480_4851)">
<path d="M105.583 105.7C105.511 107.517 105.623 109.179 105.457 110.938C104.712 118.827 96.7321 124.983 90.4631 129.09L83.6051 133.585C82.5963 134.247 80.9516 134.238 79.8926 133.707C78.9715 133.241 78.0035 132.107 78.063 130.746C78.0943 129.984 78.9246 128.84 79.6201 128.431C84.6296 125.486 89.1911 122.322 93.6932 118.662C94.915 117.668 95.8392 116.116 94.702 114.676C93.7683 113.492 92.4995 114.348 91.638 115.07C86.9354 119.018 82.0637 122.463 76.6751 125.411C75.801 125.889 74.0403 125.467 73.3104 124.958C72.6242 124.477 71.7282 123.312 71.9162 122.241C72.029 121.604 72.7402 120.336 73.2916 120.008C78.5173 116.897 83.4266 113.567 88.0602 109.676C88.7713 109.079 89.0658 108.18 89.0596 107.389C89.0533 106.749 88.4424 105.469 87.5558 105.509C86.453 105.562 85.4724 106.684 84.5983 107.38C80.5286 110.622 76.4558 113.527 71.9945 116.182C70.7978 116.894 69.2814 117.247 68.0001 116.85C66.7563 116.466 66.067 115.416 65.9386 114.286C65.8258 113.302 66.4399 112.068 67.5176 111.384C72.5804 108.164 77.4709 104.922 82.1045 101.005C87.4962 96.4453 92.7219 94.3371 99.583 97.1762C108.587 88.9587 116.432 77.9427 117.854 65.7368C119.12 54.8957 115.022 46.7032 104.649 42.7647C90.9988 37.58 73.8899 40.3972 60.8852 46.469C53.9646 49.6985 47.799 53.5777 42.1347 58.678C34.8005 65.2839 29.7126 71.3712 25.0007 80.1353C20.4266 88.6432 17.6101 99.25 17.8764 108.979C16.0844 112.012 13.5123 114.32 10.7522 116.516C7.43128 119.155 3.66551 120.698 -0.00314331 123.19C8.7753 121.282 16.7141 118.39 24.6561 114.814C35.7686 109.81 47.3228 101.742 55.0078 92.285C53.1281 88.4402 52.7427 84.5829 53.5291 80.3352C55.1049 71.8147 60.5782 64.2282 68.257 60.1304C73.467 57.3506 79.4979 57.2413 83.7336 61.3828C87.0012 64.5749 87.8597 69.9939 87.2456 74.3103C86.2368 81.4002 82.7498 87.8156 77.3769 92.5318C73.4827 95.9518 68.3259 98.3318 63.0312 97.7571L58.8081 102.848L56.5367 105.422C54.8794 107.299 53.0748 109.054 51.1919 110.675L45.2018 115.826C34.1864 125.299 21.1409 131.548 7.43441 136.505L22.2281 134.434L27.4193 133.76L31.514 137.686C34.0361 140.103 37.1408 141.824 40.352 143.28C65.406 154.627 96.848 141.565 113.932 122C124.646 109.732 132.635 92.8222 130.709 76.0781C124.722 88.2122 116.41 98.1256 105.583 105.712V105.7Z" fill="#4AAE9B"/>
<path d="M36.4641 10.897C41.3546 19.4612 40.0074 22.497 43.4411 31.1268C43.933 32.3667 44.8321 33.6348 45.6717 34.7092C48.6167 38.4635 53.5541 39.6472 58.1721 38.2605L57.7303 33.9565C57.0474 27.282 53.6137 21.5101 49.7038 15.7694C53.6826 17.5747 58.523 24.2336 60.6722 28.3033L64.3721 35.3089C64.8201 36.1585 65.9731 36.9143 66.844 36.9955C69.7608 37.261 71.8817 30.2179 72.7214 28.0597C75.9295 19.786 80.5725 12.3025 85.8201 5.18132C86.7161 3.96322 86.3527 2.49838 85.2781 1.7113C83.4297 0.355779 81.4246 0.0715566 79.2128 0.00596675C76.9289 -0.0658697 75.1525 0.627509 74.1124 2.76074C71.7972 7.50507 70.0803 12.4462 68.9775 17.6715L67.4831 24.7271L66.3897 22.0004C60.5813 7.53943 44.3402 1.13661 29.3085 3.51346C32.1375 5.9153 34.7692 7.92672 36.4641 10.9001V10.897Z" fill="#4AAE9B"/>
</g>
<defs>
<clipPath id="clip0_2480_4851">
<rect width="131" height="147.483" fill="white"/>
</clipPath>
</defs>
</svg>
