<svg
          width="17"
          height="22"
          viewBox="0 0 17 22"
          fill="none"
          xmlns="http://www.w3.org/2000/svg"
        >
          <path
            d="M10.1335 1.64326C10.1335 2.5508 9.39779 3.28652 8.49024 3.28652C7.5827 3.28652 6.84698 2.5508 6.84698 1.64326C6.84698 0.735712 7.5827 0 8.49024 0C9.39779 0 10.1335 0.735712 10.1335 1.64326Z"
            fill="#4AAE9B"
          />
          <path
            d="M9.58579 20.8143C9.58579 21.4193 9.09531 21.9098 8.49028 21.9098C7.88525 21.9098 7.39478 21.4193 7.39478 20.8143C7.39478 20.2092 7.88525 19.7188 8.49028 19.7188C9.09531 19.7188 9.58579 20.2092 9.58579 20.8143Z"
            fill="#4AAE9B"
          />
          <path
            d="M5.20377 20.8143C5.20377 21.4193 4.71329 21.9098 4.10826 21.9098C3.50323 21.9098 3.01276 21.4193 3.01276 20.8143C3.01276 20.2092 3.50323 19.7188 4.10826 19.7188C4.71329 19.7188 5.20377 20.2092 5.20377 20.8143Z"
            fill="#4AAE9B"
          />
          <path
            d="M13.9677 20.8143C13.9677 21.4193 13.4773 21.9098 12.8722 21.9098C12.2672 21.9098 11.7767 21.4193 11.7767 20.8143C11.7767 20.2092 12.2672 19.7188 12.8722 19.7188C13.4773 19.7188 13.9677 20.2092 13.9677 20.8143Z"
            fill="#4AAE9B"
          />
          <path
            fill-rule="evenodd"
            clip-rule="evenodd"
            d="M1.01864 3.58463C0.578061 3.476 0.132838 3.74509 0.0242059 4.18567C-0.0844261 4.62625 0.18467 5.07147 0.625248 5.18011C2.75403 5.70499 4.56513 6.04858 6.29955 6.20389V10.9027L5.48408 17.4264C5.4278 17.8767 5.74719 18.2873 6.19746 18.3436C6.64772 18.3999 7.05837 18.0805 7.11465 17.6302L7.94903 10.9552H9.03173L9.8661 17.6302C9.92239 18.0805 10.333 18.3999 10.7833 18.3436C11.2336 18.2873 11.553 17.8767 11.4967 17.4264L10.6816 10.9056V6.18997C12.3952 6.02841 14.2102 5.68944 16.3488 5.18178C16.7903 5.07698 17.0632 4.63411 16.9584 4.1926C16.8536 3.7511 16.4108 3.47815 15.9693 3.58295C12.9313 4.30412 10.652 4.65521 8.41748 4.65624C6.18465 4.65727 3.95545 4.30875 1.01864 3.58463Z"
            fill="#4AAE9B"
          />
        </svg>