<svg width="24" height="24" viewBox="0 0 24 24" fill="none" xmlns="http://www.w3.org/2000/svg">
<path d="M2 22L16 8" stroke="#858585" stroke-width="2" stroke-linecap="round" stroke-linejoin="round"/>
<path d="M3.46997 12.53L4.99997 11L6.52997 12.53C7.18337 13.186 7.55023 14.0741 7.55023 15C7.55023 15.9259 7.18337 16.814 6.52997 17.47L4.99997 19L3.46997 17.47C2.81657 16.814 2.44971 15.9259 2.44971 15C2.44971 14.0741 2.81657 13.186 3.46997 12.53Z" stroke="#858585" stroke-width="2" stroke-linecap="round" stroke-linejoin="round"/>
<path d="M7.46997 8.53L8.99997 7L10.53 8.53C11.1834 9.18598 11.5502 10.0741 11.5502 11C11.5502 11.9259 11.1834 12.814 10.53 13.47L8.99997 15L7.46997 13.47C6.81657 12.814 6.44971 11.9259 6.44971 11C6.44971 10.0741 6.81657 9.18598 7.46997 8.53Z" stroke="#858585" stroke-width="2" stroke-linecap="round" stroke-linejoin="round"/>
<path d="M11.47 4.53L13 3L14.53 4.53C15.1834 5.18598 15.5502 6.07413 15.5502 7C15.5502 7.92587 15.1834 8.81402 14.53 9.47L13 11L11.47 9.47C10.8166 8.81402 10.4497 7.92587 10.4497 7C10.4497 6.07413 10.8166 5.18598 11.47 4.53Z" stroke="#858585" stroke-width="2" stroke-linecap="round" stroke-linejoin="round"/>
<path d="M20 2H22V4C22 5.06087 21.5786 6.07828 20.8284 6.82843C20.0783 7.57857 19.0609 8 18 8H16V6C16 4.93913 16.4214 3.92172 17.1716 3.17157C17.9217 2.42143 18.9391 2 20 2Z" stroke="#858585" stroke-width="2" stroke-linecap="round" stroke-linejoin="round"/>
<path d="M11.47 17.4705L13 19.0005L11.47 20.5305C10.814 21.1839 9.92587 21.5507 9 21.5507C8.07413 21.5507 7.18598 21.1839 6.53 20.5305L5 19.0005L6.53 17.4705C7.18598 16.8171 8.07413 16.4502 9 16.4502C9.92587 16.4502 10.814 16.8171 11.47 17.4705Z" stroke="#858585" stroke-width="2" stroke-linecap="round" stroke-linejoin="round"/>
<path d="M15.47 13.4705L17 15.0005L15.47 16.5305C14.814 17.1839 13.9259 17.5507 13 17.5507C12.0741 17.5507 11.186 17.1839 10.53 16.5305L9 15.0005L10.53 13.4705C11.186 12.8171 12.0741 12.4502 13 12.4502C13.9259 12.4502 14.814 12.8171 15.47 13.4705Z" stroke="#858585" stroke-width="2" stroke-linecap="round" stroke-linejoin="round"/>
<path d="M19.47 9.47046L21 11.0005L19.47 12.5305C18.814 13.1839 17.9259 13.5507 17 13.5507C16.0741 13.5507 15.186 13.1839 14.53 12.5305L13 11.0005L14.53 9.47046C15.186 8.81706 16.0741 8.4502 17 8.4502C17.9259 8.4502 18.814 8.81706 19.47 9.47046Z" stroke="#858585" stroke-width="2" stroke-linecap="round" stroke-linejoin="round"/>
</svg>
