<svg width="18" height="18" viewBox="0 0 18 18" fill="none" xmlns="http://www.w3.org/2000/svg">
<path fill-rule="evenodd" clip-rule="evenodd" d="M17.25 16.5002C17.6642 16.5002 18 16.836 18 17.2502C18 17.6644 17.6642 18.0002 17.25 18.0002H0.75C0.335786 18.0002 0 17.6644 0 17.2502C0 16.836 0.335786 16.5002 0.75 16.5002H17.25ZM9.85547 3.24047C10.3239 4.12228 11.0131 5.23603 11.8887 6.11156C12.7642 6.98708 13.878 7.67629 14.7598 8.14476L9.05957 13.844C8.70591 14.1976 8.24702 14.4276 7.75195 14.4983L4.31934 14.9885C3.55675 15.0972 2.90298 14.4435 3.01172 13.6809L3.50195 10.2483C3.57268 9.75321 3.80267 9.29432 4.15625 8.94066L9.85547 3.24047ZM12.4189 0.676991C13.3217 -0.225648 14.7857 -0.225679 15.6885 0.676991L17.3232 2.31176C18.2259 3.2145 18.2259 4.67852 17.3232 5.58129L15.874 7.03051C15.7603 6.97417 15.6397 6.91323 15.5156 6.84789C14.6803 6.40808 13.689 5.7908 12.9492 5.05101C12.2094 4.31122 11.5921 3.31997 11.1523 2.48461C11.087 2.36047 11.0261 2.24 10.9697 2.12621L12.4189 0.676991Z" fill="#4AAE9B"/>
</svg>
