<svg width="18" height="19" viewBox="0 0 18 19" fill="none" xmlns="http://www.w3.org/2000/svg">
<path fill-rule="evenodd" clip-rule="evenodd" d="M4.17159 13C5.73863 14.7664 7.59133 15.9999 9.00166 16C10.412 16 12.2647 14.7664 13.8317 13H15.1687C15.9758 13.0001 16.7038 13.4854 17.0144 14.2305L17.8483 16.2305C18.3972 17.5478 17.4288 19 16.0017 19H2.00166C0.57456 18.9999 -0.392934 17.5478 0.15596 16.2305L0.988968 14.2305C1.29952 13.4855 2.02753 13.0002 2.83467 13H4.17159ZM9.00166 0C12.3154 1.60353e-05 15.0017 2.78623 15.0017 6.22266C15.0013 9.65901 11.2516 14 9.00166 14C6.75176 14 3.00198 9.65903 3.00166 6.22266C3.00166 2.78622 5.68795 0 9.00166 0ZM9.00166 4C7.89709 4 7.00166 4.89543 7.00166 6C7.00166 7.10457 7.89709 8 9.00166 8C10.1062 7.99998 11.0017 7.10456 11.0017 6C11.0017 4.89544 10.1062 4.00002 9.00166 4Z" fill="white"/>
</svg>
