<svg width="31" height="31" viewBox="0 0 31 31" fill="none" xmlns="http://www.w3.org/2000/svg">
<path d="M11.3071 21.9473C11.3071 22.5238 11.6995 23.0263 12.2588 23.1661L17.2842 24.4225C18.0771 24.6207 18.8452 24.021 18.8452 23.2036V8.20473C18.8452 7.62823 18.4529 7.12571 17.8936 6.98589L12.8682 5.72954C12.0752 5.5313 11.3071 6.13103 11.3071 6.94838V21.9473Z" fill="#4AAE9B"/>
<path d="M8.79443 22.2653C8.79443 22.779 8.48172 23.2409 8.0048 23.4317L5.49211 24.4371C4.66684 24.7673 3.76904 24.1595 3.76904 23.2707V8.38831C3.76904 7.87455 4.08185 7.41256 4.55888 7.22179L7.07156 6.21691C7.8968 5.88688 8.79443 6.49464 8.79443 7.38343V22.2653ZM26.3833 21.7632C26.3833 22.277 26.0705 22.7389 25.5935 22.9297L23.0818 23.9344C22.2566 24.2645 21.3589 23.6567 21.3589 22.7679V7.88532C21.3589 7.37159 21.6717 6.90962 22.1486 6.71883L24.6603 5.71414C25.4856 5.38404 26.3833 5.99181 26.3833 6.88064V21.7632Z" fill="#4AAE9B"/>
</svg>
