<svg
    width="24"
    height="27"
    viewBox="0 0 24 27"
    fill="none"
    xmlns="http://www.w3.org/2000/svg"
>
    <path
    fill-rule="evenodd"
    clip-rule="evenodd"
    d="M15.8654 23.25C16.2159 23.2502 16.5002 23.5342 16.5002 23.8848C16.5002 23.9608 16.4868 24.0369 16.4582 24.1074C15.7721 25.7987 14.0348 26.9999 12.0002 27C9.96561 27 8.22836 25.7987 7.54219 24.1074C7.5136 24.0369 7.50021 23.9608 7.5002 23.8848C7.5002 23.5341 7.78432 23.25 8.13496 23.25H15.8654ZM12.0002 0C16.8436 0.000187254 20.9194 3.73682 21.4807 8.69141L21.9973 13.2578C22.1258 14.3925 22.5862 15.4606 23.3166 16.3203C24.8663 18.1448 23.6079 21 21.2541 21H2.74531C0.391548 21 -0.866696 18.1448 0.682813 16.3203C1.41321 15.4606 1.87357 14.3924 2.00215 13.2578L2.51973 8.69141C3.081 3.7367 7.15667 0 12.0002 0Z"
    fill="#28303F"
    />
</svg>