<svg width="18" height="18" viewBox="0 0 18 18" fill="none" xmlns="http://www.w3.org/2000/svg">
<path fill-rule="evenodd" clip-rule="evenodd" d="M9 18C13.9706 18 18 13.9706 18 9C18 4.02944 13.9706 0 9 0C4.02944 0 0 4.02944 0 9C0 13.9706 4.02944 18 9 18ZM9.675 5.4C9.675 5.02721 9.37279 4.725 9 4.725C8.62721 4.725 8.325 5.02721 8.325 5.4V6.3C8.325 6.67279 8.62721 6.975 9 6.975C9.37279 6.975 9.675 6.67279 9.675 6.3V5.4ZM9.675 8.55C9.675 8.17721 9.37279 7.875 9 7.875C8.62721 7.875 8.325 8.17721 8.325 8.55V12.6C8.325 12.9728 8.62721 13.275 9 13.275C9.37279 13.275 9.675 12.9728 9.675 12.6V8.55Z" fill="#B1D9D1"/>
</svg>
