<svg width="24" height="24" viewBox="0 0 24 24" fill="none" xmlns="http://www.w3.org/2000/svg">
<g clip-path="url(#clip0_2542_4679)">
<path d="M8.18814 0.217035C8.54372 -0.0238184 9.00407 0.111065 9.22963 0.424312C9.45654 0.739533 9.42632 1.22015 9.08169 1.4779C8.3222 2.04299 7.93719 2.9246 8.01489 3.88502C9.09752 4.05358 10.0631 4.5838 10.8091 5.38206C12.1163 4.35433 13.7743 4.02377 15.4094 4.55518C16.8084 5.00976 17.9601 6.13656 18.5054 7.63536C18.7976 8.43812 19.3778 9.1915 20.094 9.69861L20.3203 9.86451C22.6269 11.6147 23.8678 14.4467 23.4723 17.355C23.2939 18.6673 22.7834 19.9005 21.9661 20.9424C20.3293 23.0304 17.6509 23.9735 15.0652 23.3638C13.8777 23.0839 12.8038 22.5179 11.8788 21.7202C9.24332 24.0982 5.42015 24.1733 2.72572 21.8345C1.24328 20.5472 0.344293 18.7417 0.138444 16.7863C-0.0675031 14.8298 0.446532 12.948 1.54506 11.348C2.12618 10.5003 2.35849 9.52937 2.38002 8.50401C2.40872 7.14771 3.02299 5.92765 4.04079 5.01512C2.81419 4.41156 2.10935 3.17242 1.76625 1.91003C1.65604 1.50458 1.84466 1.06372 2.27602 0.929317C3.01949 0.698148 3.78669 0.633569 4.5641 0.724968L4.73732 0.749141C5.54758 0.881392 6.25629 1.26617 6.81043 1.88696C7.12907 1.2129 7.57224 0.635801 8.18814 0.217035ZM9.76614 6.5587C8.84488 5.46186 7.34008 5.09158 6.01832 5.6128C4.67765 6.14151 3.90842 7.38257 3.90932 8.83397L3.90455 9.05882C3.85813 10.1814 3.46712 11.2831 2.83742 12.2134L2.83705 12.213C1.845 13.6804 1.43423 15.3954 1.76625 17.1495C2.03495 18.5691 2.75829 19.8404 3.85805 20.7541L3.95582 20.8336C6.00174 22.4576 8.8913 22.3604 10.8135 20.5784C9.25967 18.5327 8.80655 15.9852 9.44165 13.5683C9.67277 12.6882 9.58029 11.8001 9.33583 10.9371C8.76309 9.48133 8.92873 7.88335 9.76614 6.5587ZM17.0372 8.15942C16.4014 6.37168 14.5228 5.43047 12.7508 6.06175C10.9788 6.69306 10.1247 8.61493 10.7769 10.3849C11.1971 11.5265 11.2419 12.7858 10.9461 13.9719C10.5351 15.6192 10.69 17.2775 11.4991 18.7748V18.7751C12.238 20.1445 13.4338 21.1945 14.9019 21.696C17.2709 22.5056 19.8398 21.575 21.1363 19.4116C21.9614 18.0348 22.1764 16.4183 21.8262 14.8713C21.4593 13.249 20.5227 11.9393 19.188 10.9664C18.2255 10.2646 17.4368 9.28412 17.0372 8.15942ZM4.73953 2.34252C4.34015 2.24807 3.95975 2.21074 3.54201 2.26489C3.68964 2.58463 3.86428 2.86121 4.08253 3.12658C4.32838 3.38472 4.60299 3.57743 4.93434 3.69677C5.35528 3.80743 5.75717 3.85356 6.20364 3.79453C6.0608 3.48001 5.88444 3.20111 5.65577 2.92443C5.38858 2.64183 5.09173 2.44993 4.73953 2.34252Z" fill="#4AAE9B" stroke="#4AAE9B" stroke-width="0.193424"/>
<path d="M13.0497 12.7175C13.9099 11.451 15.4579 10.9258 16.9128 11.402C18.4354 11.9013 19.562 13.2005 20.0927 14.6979C20.6233 16.1953 20.5637 17.906 19.6949 19.2342C18.8816 20.478 17.4305 21.0284 16.0211 20.6668L15.8849 20.6287C14.3281 20.1627 13.1685 18.849 12.623 17.3266C12.0776 15.8043 12.1403 14.0572 13.0497 12.7175ZM16.3529 12.864C15.5775 12.6433 14.7918 12.9256 14.3424 13.5927C13.7403 14.4858 13.7038 15.7029 14.0875 16.7864C14.4712 17.87 15.2676 18.7994 16.3042 19.1262C17.0872 19.3735 17.8967 19.1045 18.3663 18.4161L18.3861 18.3857C18.9827 17.4762 19.0011 16.2454 18.6003 15.1605C18.1995 14.0754 17.3876 13.1583 16.3529 12.864Z" fill="#4AAE9B" stroke="#4AAE9B" stroke-width="0.193424"/>
</g>
<defs>
<clipPath id="clip0_2542_4679">
<rect width="24" height="24" fill="white"/>
</clipPath>
</defs>
</svg>
